<svg
    width="76"
    height="76"
    viewBox="0 0 76 76"
    fill="none"
    xmlns="http://www.w3.org/2000/svg"
>
    <path
    d="M1 62.7098C1.43124 57.6212 1.7331 53.007 1.90559 48.8671C2.16434 44.7273 2.29371 41.1049 2.29371 38C2.29371 34.8951 2.16434 31.2727 1.90559 27.1329C1.7331 22.9068 1.43124 18.2925 1 13.2902H4.62238C5.22611 17.6888 6.3042 21.3543 7.85664 24.2867C9.49534 27.1329 11.6515 29.4184 14.3252 31.1434C17.0851 32.8683 20.4056 34.0758 24.2867 34.7657C28.1678 35.4557 32.7389 35.8007 38 35.8007C43.2611 35.8007 47.8322 35.4557 51.7133 34.7657C55.5944 34.0758 58.8718 32.8683 61.5455 31.1434C64.3054 29.4184 66.4615 27.1329 68.014 24.2867C69.6527 21.3543 70.7739 17.6888 71.3776 13.2902H75C74.5688 18.2925 74.2238 22.9068 73.965 27.1329C73.7925 31.2727 73.7063 34.8951 73.7063 38C73.7063 41.1049 73.7925 44.7273 73.965 48.8671C74.2238 53.007 74.5688 57.6212 75 62.7098H71.3776C70.7739 58.3112 69.6527 54.6888 68.014 51.8427C66.4615 48.9103 64.3054 46.5816 61.5455 44.8566C58.8718 43.1317 55.5944 41.9242 51.7133 41.2343C47.8322 40.5443 43.2611 40.1993 38 40.1993C32.7389 40.1993 28.1678 40.5443 24.2867 41.2343C20.4056 41.9242 17.0851 43.1317 14.3252 44.8566C11.6515 46.5816 9.49534 48.9103 7.85664 51.8427C6.3042 54.6888 5.22611 58.3112 4.62238 62.7098H1ZM13.2902 75V71.3776C17.6888 70.7739 21.3112 69.6958 24.1573 68.1434C27.0897 66.5047 29.4184 64.3485 31.1434 61.6748C32.8683 58.9149 34.0758 55.5944 34.7657 51.7133C35.4557 47.8322 35.8007 43.2611 35.8007 38C35.8007 32.7389 35.4557 28.1678 34.7657 24.2867C34.0758 20.4056 32.8683 17.1282 31.1434 14.4545C29.4184 11.6946 27.0897 9.53846 24.1573 7.98602C21.3112 6.34732 17.6888 5.22611 13.2902 4.62238V1C18.3788 1.43124 22.993 1.77622 27.1329 2.03497C31.2727 2.20746 34.8951 2.29371 38 2.29371C41.1049 2.29371 44.7273 2.20746 48.8671 2.03497C53.0932 1.77622 57.7075 1.43124 62.7098 1V4.62238C58.3112 5.22611 54.6457 6.34732 51.7133 7.98602C48.8671 9.53846 46.5816 11.6946 44.8566 14.4545C43.1317 17.1282 41.9242 20.4056 41.2343 24.2867C40.5443 28.1678 40.1993 32.7389 40.1993 38C40.1993 43.2611 40.5443 47.8322 41.2343 51.7133C41.9242 55.5944 43.1317 58.9149 44.8566 61.6748C46.5816 64.3485 48.8671 66.5047 51.7133 68.1434C54.6457 69.6958 58.3112 70.7739 62.7098 71.3776V75C57.7075 74.5688 53.0932 74.2669 48.8671 74.0944C44.7273 73.8357 41.1049 73.7063 38 73.7063C34.8951 73.7063 31.2727 73.8357 27.1329 74.0944C22.993 74.2669 18.3788 74.5688 13.2902 75Z"
    stroke="#020208"
    stroke-width="1.5"
    className="svg-elem-1"
    ></path>
</svg>