<svg width="100%" height="100%" viewBox="0 0 440 440" preserveAspectRatio="xMidYMid meet" fill="none" xmlns="http://www.w3.org/2000/svg">
    <path fill-rule="evenodd" clip-rule="evenodd" d="M111.571 0H1.57144V110C1.57144 166.016 43.4425 212.253 97.5942 219.12C42.6833 225.284 9.28455e-06 271.872 4.80825e-06 328.429L0 438.429H110C166.016 438.429 212.253 396.557 219.12 342.406C225.284 397.318 271.872 440 328.429 440H438.429V330C438.429 273.984 396.557 227.746 342.406 220.88C397.318 214.716 440 168.128 440 111.571V1.57143L330 1.57142C273.984 1.57142 227.746 43.4425 220.88 97.5942C214.716 42.6833 168.128 0 111.571 0Z" fill="black" />      
</svg>